<svg id="Слой_1" data-name="Слой 1" xmlns="http://www.w3.org/2000/svg" viewBox="0 0 733.33 666.67"><defs><style>.cls-1{fill:#0a3b66;}</style></defs><path class="cls-1" d="M397.74,71.54a58.67,58.67,0,0,0-64.32,11.77l-282,273.9a59.71,59.71,0,0,0,0,85.55l282.06,273.9a58.73,58.73,0,0,0,90.29-10.27,59.76,59.76,0,0,0,9.61-32.51V567.36c76.49,3.33,124.52,18.36,160.82,40.3,42.33,25.58,72.09,62.25,113.24,113.27A33.34,33.34,0,0,0,766.67,700c0-118.62-16.71-234.71-71.82-322-52.38-82.92-136.8-135.77-261.52-143.67V126.08a59.7,59.7,0,0,0-9.61-32.5A59,59,0,0,0,397.74,71.54Z" transform="translate(-33.33 -66.67)"/></svg>